<?xml version="1.0" encoding="iso-8859-1"?>
<!-- Generator: Adobe Illustrator 18.0.0, SVG Export Plug-In . SVG Version: 6.00 Build 0)  -->
<!DOCTYPE svg PUBLIC "-//W3C//DTD SVG 1.1//EN" "http://www.w3.org/Graphics/SVG/1.1/DTD/svg11.dtd">
<svg xmlns="http://www.w3.org/2000/svg" xmlns:xlink="http://www.w3.org/1999/xlink" version="1.1" id="Capa_1" x="0px" y="0px" viewBox="0 0 456.867 456.867" style="enable-background:new 0 0 456.867 456.867;" xml:space="preserve" width="512px" height="512px">
<g>
	<path d="M414.275,119.246h-98.203v-7.686c0-23.488-19.111-42.599-42.592-42.599h-18.229V40.4c0-4.063-3.293-7.355-7.363-7.355   h-38.91c-4.072,0-7.363,3.293-7.363,7.355v28.561h-18.229c-23.48,0-42.59,19.11-42.59,42.599v7.686H42.592   C19.111,119.246,0,138.356,0,161.844v219.379c0,23.488,19.111,42.6,42.592,42.6h371.684c23.48,0,42.592-19.111,42.592-42.6V161.844   C456.867,138.356,437.756,119.246,414.275,119.246z M426.217,381.223c0,6.591-5.358,11.95-11.941,11.95H42.592   c-6.584,0-11.941-5.359-11.941-11.95V161.844c0-6.591,5.357-11.949,11.941-11.949h113.529c8.471,0,15.324-6.862,15.324-15.325   v-23.01c0-6.592,5.357-11.949,11.941-11.949h18.229v13.888c-8.471,0-15.324,6.861-15.324,15.324   c0,8.463,6.854,15.326,15.324,15.326h53.637c8.471,0,15.324-6.863,15.324-15.326c0-8.463-6.853-15.324-15.324-15.324V99.611h18.229   c6.584,0,11.941,5.357,11.941,11.949v23.01c0,8.463,6.854,15.325,15.326,15.325h113.527c6.584,0,11.941,5.358,11.941,11.949   V381.223z" fill="#FFFFFF"/>
	<path d="M383.596,193.954H216.939c-8.469,0-15.324,6.86-15.324,15.324c0,8.463,6.855,15.325,15.324,15.325h166.656   c8.469,0,15.324-6.862,15.324-15.325C398.92,200.814,392.064,193.954,383.596,193.954z" fill="#FFFFFF"/>
	<path d="M383.596,255.252H216.939c-8.469,0-15.324,6.86-15.324,15.324c0,8.462,6.855,15.325,15.324,15.325h166.656   c8.469,0,15.324-6.863,15.324-15.325C398.92,262.112,392.064,255.252,383.596,255.252z" fill="#FFFFFF"/>
	<path d="M383.596,316.55H216.939c-8.469,0-15.324,6.861-15.324,15.325c0,8.462,6.855,15.325,15.324,15.325h166.656   c8.469,0,15.324-6.863,15.324-15.325C398.92,323.411,392.064,316.55,383.596,316.55z" fill="#FFFFFF"/>
	<path d="M153.945,306.028c-13.035-4.556-21.76-16.858-21.76-30.663c12.734-8.635,21.461-25.061,21.461-44.157   c0-27.986-18.529-50.664-41.365-50.664c-22.854,0-41.365,22.678-41.365,50.664c0,19.096,8.727,35.522,21.461,44.157   c0,13.804-8.725,26.107-21.76,30.663c-15.295,5.352-25.547,19.792-25.547,36v13.275c0,3.987,3.234,7.221,7.229,7.221h119.963   c3.998,0,7.229-3.233,7.229-7.221v-13.282C179.49,325.813,169.24,311.38,153.945,306.028z" fill="#FFFFFF"/>
</g>
<g>
</g>
<g>
</g>
<g>
</g>
<g>
</g>
<g>
</g>
<g>
</g>
<g>
</g>
<g>
</g>
<g>
</g>
<g>
</g>
<g>
</g>
<g>
</g>
<g>
</g>
<g>
</g>
<g>
</g>
</svg>
